<?xml version="1.0" encoding="UTF-8"?>
<svg id="Layer_1" data-name="Layer 1" xmlns="http://www.w3.org/2000/svg" xmlns:xlink="http://www.w3.org/1999/xlink" viewBox="0 0 160 160">
  <defs>
    <style>
      .cls-1 {
        fill: url(#Degradado_sin_nombre_326);
      }

      .cls-2 {
        fill: url(#Degradado_sin_nombre_4);
      }

      .cls-3 {
        fill: url(#Degradado_sin_nombre_3);
      }

      .cls-4 {
        fill: url(#Degradado_sin_nombre_325);
      }
    </style>
    <linearGradient id="Degradado_sin_nombre_326" data-name="Degradado sin nombre 326" x1="32.21" y1="79.21" x2="92.57" y2="79.21" gradientUnits="userSpaceOnUse">
      <stop offset="0" stop-color="#ff3de4"/>
      <stop offset=".14" stop-color="#f03be1"/>
      <stop offset=".42" stop-color="#c936da"/>
      <stop offset=".79" stop-color="#8a2fce"/>
      <stop offset=".96" stop-color="#6c2cc9"/>
    </linearGradient>
    <linearGradient id="Degradado_sin_nombre_325" data-name="Degradado sin nombre 325" x1="72.3" y1="95.6" x2="121.9" y2="75.12" gradientUnits="userSpaceOnUse">
      <stop offset=".04" stop-color="#6c2cc9"/>
      <stop offset=".21" stop-color="#8a2fce"/>
      <stop offset=".58" stop-color="#c936da"/>
      <stop offset=".86" stop-color="#f03be1"/>
      <stop offset="1" stop-color="#ff3de4"/>
    </linearGradient>
    <linearGradient id="Degradado_sin_nombre_4" data-name="Degradado sin nombre 4" x1="63.18" y1="69.2" x2="88.72" y2="132.86" gradientUnits="userSpaceOnUse">
      <stop offset="0" stop-color="#007999"/>
      <stop offset=".63" stop-color="#00bfca"/>
      <stop offset="1" stop-color="#00ebe9"/>
    </linearGradient>
    <linearGradient id="Degradado_sin_nombre_3" data-name="Degradado sin nombre 3" x1="69.86" y1="31.4" x2="91.91" y2="77.31" gradientUnits="userSpaceOnUse">
      <stop offset="0" stop-color="#00ebe9"/>
      <stop offset=".36" stop-color="#00c4ce"/>
      <stop offset="1" stop-color="#007999"/>
    </linearGradient>
  </defs>
  <path class="cls-1" d="M80,53.03c-4.69-2.71-10.13-4.27-15.93-4.27-4.87,0-9.48,1.1-13.61,3.05-10.79,5.1-18.25,16.06-18.25,28.77s7.78,24.13,18.94,29.08c-2.15-4.28-3.36-9.11-3.36-14.22,0-5.61,1.46-10.87,4.01-15.44,3.51-6.3,9.09-11.28,15.83-14.02,3.71-1.51,7.77-2.35,12.03-2.35,4.6,0,8.97.98,12.92,2.73-2.8-5.58-7.18-10.22-12.57-13.33Z"/>
  <path class="cls-4" d="M108.67,51.41c1.82,4.01,2.85,8.45,2.85,13.14,0,5.61-1.46,10.87-4.01,15.44-3.23,5.8-8.22,10.48-14.24,13.33-4.13,1.95-8.74,3.05-13.61,3.05-4.53,0-8.83-.95-12.73-2.65,2.76,6.06,7.35,11.1,13.08,14.41,4.69,2.71,10.12,4.27,15.93,4.27,4.26,0,8.31-.84,12.03-2.35,11.63-4.74,19.83-16.14,19.83-29.46s-7.87-24.26-19.13-29.17Z"/>
  <path class="cls-2" d="M95.93,112.4c-5.81,0-11.24-1.56-15.93-4.27-5.73-3.31-10.33-8.35-13.08-14.41-1.82-4.01-2.85-8.45-2.85-13.14,0-5.27,1.29-10.23,3.56-14.6-6.74,2.75-12.32,7.72-15.83,14.02-2.55,4.57-4.01,9.84-4.01,15.44,0,5.11,1.21,9.94,3.36,14.22,5.23,10.43,16.02,17.6,28.5,17.6s23.01-6.99,28.3-17.22c-3.71,1.51-7.77,2.35-12.03,2.35Z"/>
  <path class="cls-3" d="M108.67,51.41c-5.01-11.01-16.11-18.68-29.01-18.68s-24.27,7.85-29.19,19.07c4.13-1.95,8.74-3.05,13.61-3.05,5.81,0,11.24,1.56,15.93,4.27,5.39,3.11,9.77,7.75,12.57,13.33,2.15,4.28,3.36,9.11,3.36,14.22,0,4.53-.96,8.84-2.67,12.75,6.03-2.85,11.01-7.53,14.24-13.33,2.55-4.57,4.01-9.84,4.01-15.44,0-4.69-1.02-9.13-2.85-13.14Z"/>
</svg>